<svg width="400" height="400" viewBox="0 0 400 400" xmlns="http://www.w3.org/2000/svg">
  <defs>
    <radialGradient id="starGlow" cx="50%" cy="50%" r="50%" fx="50%" fy="50%">
      <stop offset="0%" style="stop-color:white;stop-opacity:0.8"/>
      <stop offset="100%" style="stop-color:white;stop-opacity:0"/>
    </radialGradient>
  </defs>
  
  <!-- Small stars -->
  <g fill="url(#starGlow)">
    <circle cx="50" cy="50" r="1"/>
    <circle cx="120" cy="80" r="1.5"/>
    <circle cx="200" cy="30" r="1"/>
    <circle cx="280" cy="70" r="1.2"/>
    <circle cx="350" cy="40" r="1"/>
    <circle cx="80" cy="150" r="1.3"/>
    <circle cx="170" cy="120" r="1"/>
    <circle cx="250" cy="160" r="1.5"/>
    <circle cx="320" cy="130" r="1"/>
    <circle cx="30" cy="220" r="1.2"/>
    <circle cx="100" cy="250" r="1"/>
    <circle cx="180" cy="210" r="1.4"/>
    <circle cx="270" cy="240" r="1"/>
    <circle cx="340" cy="200" r="1.3"/>
    <circle cx="60" cy="310" r="1"/>
    <circle cx="150" cy="280" r="1.5"/>
    <circle cx="230" cy="320" r="1"/>
    <circle cx="300" cy="290" r="1.2"/>
    <circle cx="370" cy="330" r="1"/>
  </g>
  
  <!-- Medium stars -->
  <g fill="url(#starGlow)">
    <circle cx="150" cy="50" r="2"/>
    <circle cx="250" cy="120" r="2.2"/>
    <circle cx="100" cy="180" r="2"/>
    <circle cx="320" cy="220" r="2.5"/>
    <circle cx="180" cy="280" r="2"/>
    <circle cx="280" cy="350" r="2.3"/>
  </g>
  
  <!-- Large stars -->
  <g fill="url(#starGlow)">
    <circle cx="200" cy="150" r="3"/>
    <circle cx="100" cy="300" r="3.5"/>
    <circle cx="350" cy="250" r="3"/>
  </g>
</svg> 